<svg width="100" height="17" viewBox="0 0 100 17" fill="none" xmlns="http://www.w3.org/2000/svg">
<path d="M0 16.4873V14.1992L1.88425 14.603C3.8358 14.603 4.57604 13.5936 4.57604 11.171V0.403809H6.86406V11.9785C6.86406 15.4105 4.77793 16.7564 2.08614 16.7564C1.21131 16.6891 0.538358 16.5545 0 16.4873Z" fill="#2C3E50"/>
<path d="M20.7938 2.6919L19.9863 4.23968C19.919 4.30697 19.919 4.44156 19.919 4.50886L21.3995 11.0364C21.3995 11.171 21.3995 11.2383 21.3322 11.3729L19.4479 13.9301C19.3133 14.132 19.0441 14.132 18.9096 13.9301L16.6215 11.2383C16.5542 11.171 16.4869 11.0364 16.5542 10.9019L17.9674 4.57615C17.9674 4.50886 17.9674 4.37427 17.9001 4.30697L17.0253 2.6246C16.958 2.42272 17.0253 2.22084 17.1599 2.08625C17.6983 1.81707 18.9096 1.48059 20.5246 2.08625C20.8611 2.22084 20.9284 2.49001 20.7938 2.6919Z" fill="#FFB400"/>
<path d="M10.498 8.41184C10.498 3.36474 14.2666 0 19.0445 0C23.8224 0 27.5236 3.36474 27.5236 8.41184C27.5236 13.4589 23.7551 16.8237 18.9772 16.8237C14.1993 16.8237 10.498 13.4589 10.498 8.41184ZM25.1683 8.41184C25.1683 4.71063 22.4765 2.15343 18.9772 2.15343C15.4779 2.15343 12.7861 4.71063 12.7861 8.41184C12.7861 12.1131 15.4779 14.6703 18.9772 14.6703C22.4765 14.6703 25.1683 12.1131 25.1683 8.41184Z" fill="#2C3E50"/>
<path d="M31.292 16.42V0.403809H36.6083C39.6365 0.403809 41.3862 2.22077 41.3862 4.50879C41.3862 5.92198 40.7133 7.13328 39.502 7.87352C41.3189 8.54647 42.261 10.0943 42.261 11.9112C42.261 14.4684 40.4441 16.3527 37.2812 16.3527H31.292V16.42ZM33.58 2.55724V7.20058H36.4737C37.8869 7.20058 39.0309 6.46034 39.0309 4.84526C39.0309 3.23019 37.8869 2.48995 36.4737 2.48995H33.58V2.55724ZM33.58 9.35401V14.2665H37.1466C38.6944 14.2665 39.9057 13.459 39.9057 11.8439C39.9057 10.1615 38.6944 9.4213 37.1466 9.4213H33.58V9.35401Z" fill="#2C3E50"/>
<path d="M44.9531 8.41184C44.9531 3.36474 48.7216 0 53.5669 0C55.653 0 57.4699 0.538358 58.8831 1.14401V3.70121C57.2008 2.6245 55.4511 2.08614 53.5669 2.15343C50.0002 2.15343 47.2411 4.77793 47.2411 8.41184C47.2411 12.0458 50.0002 14.6703 53.5669 14.6703C54.7109 14.6703 55.9222 14.4684 57.0662 13.93V9.35397H52.1537V7.20054H59.3542V15.2086C57.941 16.0161 56.0568 16.891 53.5669 16.891C48.7216 16.8237 44.9531 13.4589 44.9531 8.41184Z" fill="#2C3E50"/>
<path d="M61.4404 16.42L67.4297 0.403809H70.1887L76.178 16.42H73.6208L72.3422 12.8533H65.2762L63.9976 16.42H61.4404ZM66.0165 10.6999H71.5346L68.8429 2.96101L66.0165 10.6999Z" fill="#2C3E50"/>
<path d="M80.7537 16.42V2.55724H76.1104V0.403809H87.685V2.55724H83.0417V16.42H80.7537Z" fill="#2C3E50"/>
<path d="M90.7803 16.42V0.403809H99.9324V2.55724H93.0683V7.20058H99.5286V9.35401H93.0683V14.2665H99.9996V16.42H90.7803Z" fill="#2C3E50"/>
</svg>
